<?xml version="1.0" encoding="utf-8"?><svg version="1.1" id="Layer_1" xmlns="http://www.w3.org/2000/svg" xmlns:xlink="http://www.w3.org/1999/xlink" x="0px" y="0px" viewBox="0 0 94.37 122.88" style="enable-background:new 0 0 94.37 122.88" xml:space="preserve"><style type="text/css">.st0{fill-rule:evenodd;clip-rule:evenodd;}</style><g><path class="st0" d="M60.23,61.62c-0.13,0.34-0.2,0.71-0.2,1.09c0,1.7,1.38,3.08,3.08,3.08c1.7,0,3.08-1.38,3.08-3.08 c0-0.49-0.11-0.95-0.32-1.36c1.34,0.15,2.7,0.44,4.07,0.89c0.58,0.19,1.19-0.2,1.36-0.86c0.17-0.66-0.17-1.35-0.76-1.54 c-2.22-0.73-4.44-1.09-6.66-1.08c-2.21,0-4.4,0.37-6.57,1.09c-0.58,0.19-0.92,0.88-0.75,1.54c0.17,0.66,0.78,1.04,1.36,0.85 C58.68,61.98,59.46,61.77,60.23,61.62L60.23,61.62z M85.82,83.99V69.62c0.61-2.61,1.76-3.95,3.05-4.19 C93.35,64.6,92.63,82.99,85.82,83.99L85.82,83.99z M82.96,51.25C58.87,34,44.05,19.72,23.98,32.43 c-7.14,4.52-9.36,13.79-12.62,18.96c0,13.27,0,26.52,0,39.81c1.9,9.11,4.24,9.87,10.07,15.58l10.12,9.9 c1.83,1.51,3.89,2.39,6.08,2.91c3.84,0.9,16.77,1.19,20.38,0.03c2.2-0.71,4.27-2.01,6.19-4.03l7.35-7.14 c7.1-6.89,11.92-9.86,11.41-21.27C82.96,75.18,82.96,63.24,82.96,51.25L82.96,51.25z M34.12,48.99c0.97-0.04,1.78,0.71,1.82,1.67 c0.04,0.97-0.71,1.78-1.67,1.82c-2.68,0.12-4.97,0.67-6.89,1.6c-1.87,0.9-3.39,2.19-4.6,3.82c-0.58,0.78-1.67,0.94-2.45,0.36 c-0.78-0.58-0.94-1.67-0.36-2.45c1.55-2.09,3.5-3.73,5.89-4.89C28.19,49.8,30.94,49.14,34.12,48.99L34.12,48.99z M61.72,52.14 c-0.97,0-1.75-0.79-1.74-1.76c0-0.97,0.79-1.75,1.76-1.74c2.9,0.01,5.54,0.56,7.92,1.67c2.4,1.13,4.5,2.82,6.28,5.13 c0.59,0.77,0.45,1.86-0.32,2.46c-0.76,0.59-1.86,0.45-2.46-0.32c-1.43-1.86-3.1-3.21-4.99-4.1C66.26,52.59,64.11,52.15,61.72,52.14 L61.72,52.14z M60.88,94.71c-1.5,0.51-3.05,0.94-4.65,1.29v0c-1.64,0.45-3.15,0.73-4.49,0.76c-1.53,0.03-2.84-0.25-3.89-0.95 c-0.32-0.21-0.61-0.44-0.86-0.68c-0.25,0.24-0.54,0.47-0.86,0.68c-1.05,0.7-2.36,0.98-3.89,0.95c-1.34-0.03-2.85-0.3-4.49-0.76v0 c-1.6-0.35-3.14-0.78-4.65-1.29c-1.5-0.51-2.96-1.1-4.39-1.76c-0.69-0.32-0.97-1.09-0.62-1.73c0.21-0.38,0.59-0.62,1.01-0.69v0 c0.76-0.12,1.37-0.2,1.94-0.28l0.05-0.01c1.84-0.25,3.25-0.45,4.98-1.14c0.49-0.19,0.96-0.41,1.44-0.63 c2.75-1.27,5.76-2.67,8.77-0.28c0.26,0.21,0.5,0.42,0.71,0.65c0.21-0.23,0.45-0.44,0.71-0.65c3-2.39,6.02-1,8.77,0.28 c0.48,0.22,0.95,0.44,1.44,0.63c1.72,0.69,3.14,0.89,4.98,1.14l0.05,0.01c0.57,0.08,1.18,0.16,1.94,0.28l0,0 c0.42,0.07,0.81,0.31,1.01,0.69c0.35,0.63,0.07,1.41-0.62,1.73C63.84,93.62,62.38,94.2,60.88,94.71L60.88,94.71z M43.36,82.99 c-0.61-0.51-0.69-1.41-0.18-2.01c0.51-0.61,1.41-0.69,2.01-0.18c0.71,0.6,1.4,0.92,2.05,0.92c0.66,0.01,1.38-0.29,2.15-0.93 c0.61-0.5,1.51-0.41,2.01,0.2c0.5,0.61,0.41,1.51-0.2,2.01c-1.32,1.08-2.65,1.59-4,1.58C45.87,84.56,44.58,84.02,43.36,82.99 L43.36,82.99z M38.88,101.85c-0.73-0.39-1.01-1.3-0.62-2.03c0.39-0.73,1.3-1.01,2.03-0.62c2.31,1.23,4.59,1.86,6.83,1.86 c2.24,0,4.48-0.61,6.73-1.85c0.73-0.4,1.64-0.13,2.04,0.59c0.4,0.73,0.13,1.64-0.59,2.04c-2.69,1.49-5.42,2.22-8.18,2.21 C44.36,104.05,41.61,103.31,38.88,101.85L38.88,101.85z M8.55,83.99V69.62c-0.61-2.61-1.76-3.95-3.05-4.19 C1.01,64.6,1.74,82.99,8.55,83.99L8.55,83.99z M8.96,86.46c-0.25,0.04-0.51,0.05-0.77,0.01c-4.72-0.69-7.26-6.47-7.87-12 c-0.17-1.52-0.2-3.03-0.09-4.39c0.11-1.45,0.38-2.79,0.82-3.87c0.94-2.36,2.56-3.67,4.91-3.24c1.12,0.21,2.15,0.79,3.01,1.77v-1.92 l-1.92-1.08c-0.53-5.23-1.88-11.66-2.73-17.61c-0.14-0.96-0.22-1.89-0.27-2.81C1.98,41.74,0.3,39.81,0,34.4v-8.72 c1.26-10.43,6.12-14.62,14.09-13.42C21.68,4.33,32.39-0.1,47.13,0.02C63.56-0.3,77.56,3.53,87.73,13.94 c5.35,5.32,7.62,13.57,6.25,25.31c0.06,2.23-0.07,4.56-0.43,7.02c-0.76,5.29-1.74,10.91-2.04,15.04l-2.55,1.59 c2.06-0.15,3.5,1.13,4.37,3.31c0.43,1.09,0.7,2.42,0.82,3.87c0.1,1.36,0.07,2.86-0.09,4.39c-0.61,5.53-3.15,11.31-7.87,12 c-0.21,0.03-0.41,0.03-0.61,0.01v0.7c0,0.03,0,0.06,0,0.09c0.45,11.06-3.58,14.85-9.81,20.72c-0.77,0.73-1.59,1.49-2.35,2.24 l-7.31,7.1c-1.09,1.14-2.23,2.09-3.42,2.86c-1.21,0.78-2.47,1.38-3.79,1.8c-1.95,0.63-5.96,0.89-10.07,0.88 c-4.6-0.01-9.45-0.33-11.65-0.85c-1.26-0.3-2.49-0.7-3.66-1.25c-1.18-0.55-2.33-1.26-3.43-2.17c-0.06-0.05-0.11-0.1-0.16-0.15l0,0 l-10.12-9.9c-0.87-0.85-1.74-1.66-2.52-2.39c-4.41-4.11-6.5-6.05-8.25-14.47c-0.04-0.17-0.05-0.34-0.05-0.51H8.96V86.46L8.96,86.46 z M24.49,62.54c-0.57,0.22-1.2-0.12-1.4-0.78c-0.2-0.65,0.11-1.36,0.68-1.59c2.22-0.87,4.44-1.27,6.67-1.25 c2.22,0.02,4.43,0.45,6.64,1.25c0.58,0.21,0.9,0.91,0.71,1.56c-0.18,0.65-0.8,1.02-1.37,0.81c-0.73-0.27-1.46-0.49-2.2-0.66 c0.07,0.26,0.11,0.54,0.11,0.83c0,1.7-1.38,3.08-3.08,3.08c-1.7,0-3.08-1.38-3.08-3.08c0-0.42,0.08-0.82,0.23-1.18 C27.11,61.69,25.8,62.03,24.49,62.54L24.49,62.54z"/></g></svg>