<svg id="Layer_1" data-name="Layer 1" xmlns="http://www.w3.org/2000/svg" viewBox="0 0 122.88 106.63"><title>female-face</title><path d="M.54,94.19c6.71-.54,10.81-4.06,13.45-9.25s3.87-12.34,4.72-19.77v0c.43-3.84.7-7.81,1-11.81,1.32-20,2.69-40.79,26-50.2A42.49,42.49,0,0,1,69.33.7,36.45,36.45,0,0,1,89.2,11.34C98.94,21.62,99.77,35,100.64,49c.66,10.66,1.35,21.68,6,31.9a27.57,27.57,0,0,0,6.84,9.61,15.28,15.28,0,0,0,8.81,3.7.58.58,0,0,1,.49.82c-2.18,6-15.11,10.5-26.88,10.84a39.76,39.76,0,0,1-9.7-.81,17.74,17.74,0,0,1-7.5-3.34c-2.76-2.28-4.1-5.54-3.13-10a15.36,15.36,0,0,1-1.26,1,24.64,24.64,0,0,1-14.18,4.11C55,96.83,50,95.42,46.51,92.6a15.21,15.21,0,0,1-1.25-1.15c-.12,5.16-2.19,8.83-5.4,11.27a20.64,20.64,0,0,1-10.12,3.7,38.69,38.69,0,0,1-11.86-.61C9.4,104.1,1.78,99.9,0,95a.6.6,0,0,1,.36-.75l.15,0ZM57.92,74.58a1.3,1.3,0,0,1,1.67-2,3,3,0,0,0,1.88.84,3.15,3.15,0,0,0,2-.85,1.29,1.29,0,1,1,1.64,2A5.56,5.56,0,0,1,61.43,76a5.36,5.36,0,0,1-3.51-1.42Zm-2.48,8.68a1.58,1.58,0,0,1,1.08-3,13.75,13.75,0,0,0,9.94-.12,1.58,1.58,0,1,1,1.13,3,17.07,17.07,0,0,1-12.15.14Zm-.8-33.67c2.42.91,2.93,2.93,1.58,3.68-1.59.89-3.58-.43-5.13-.93-4-1.28-8.84-1.43-12.32.75a18.09,18.09,0,0,0-2.83,2.24,9.82,9.82,0,0,1,1.72-3.47c3.5-4.41,12.3-4.67,17-2.27Zm13.6,0c-2.41.91-2.92,2.93-1.57,3.68,1.58.89,3.58-.43,5.12-.93,4-1.28,8.83-1.43,12.32.75A18.61,18.61,0,0,1,87,55.33a9.84,9.84,0,0,0-1.73-3.47c-3.5-4.41-12.3-4.67-17-2.27ZM41.49,58.27a1.09,1.09,0,0,1-.68-.73,1.18,1.18,0,0,1,.62-1.43,16.62,16.62,0,0,1,12,0,1.15,1.15,0,0,1,.64,1.41,1,1,0,0,1-1.24.73,20.43,20.43,0,0,0-2-.6,3.15,3.15,0,0,1,.1.75,2.79,2.79,0,0,1-5.57,0,2.83,2.83,0,0,1,.21-1.07,14.84,14.84,0,0,0-3,.71,1.84,1.84,0,0,1-1.14.23Zm31.21-.7a2.83,2.83,0,0,0-.13.83,2.79,2.79,0,1,0,5.29-1.23,18.44,18.44,0,0,1,3.68.81,1,1,0,0,0,1.22-.78,1.17,1.17,0,0,0-.68-1.4,19.15,19.15,0,0,0-6-1,18.55,18.55,0,0,0-5.94,1,1.16,1.16,0,0,0-.68,1.4,1,1,0,0,0,1.23.77,18.51,18.51,0,0,1,2-.54c.18,0,.14-.08.07.13Zm7.09,28A59.62,59.62,0,0,0,90.55,69.47a64.66,64.66,0,0,0,0-26.44c-8.53-4-14.11-12.65-17-25.71-3.42,24.87-34,23.8-41.65,28.33,0,11.3-1.48,19.21,3.5,29.52h0a62.76,62.76,0,0,0,3.46,6.28,31.7,31.7,0,0,0,3.4,4.74c10.26,11.06,27.81,9.68,37.51-.59Z"/></svg>